<svg width="38" height="21" viewBox="0 0 38 21" fill="none" xmlns="http://www.w3.org/2000/svg">
<path d="M20.6836 19.4434V20H13.2129V19.4434C13.916 19.4434 14.3945 19.3945 14.6484 19.2969C15.0586 19.1406 15.2637 18.8184 15.2637 18.3301C15.2637 18.1543 15.2148 17.9199 15.1172 17.627C15.0391 17.334 14.9023 16.9531 14.707 16.4844L13.5059 13.6719H5.83008L4.48242 17.0996C4.32617 17.5098 4.24805 17.8809 4.24805 18.2129C4.24805 18.7402 4.50195 19.1016 5.00977 19.2969C5.26367 19.3945 5.67383 19.4434 6.24023 19.4434V20H0.439453V19.4434C0.791016 19.4434 1.07422 19.3848 1.28906 19.2676C1.52344 19.1504 1.73828 18.9941 1.93359 18.7988C2.22656 18.4863 2.59766 17.8613 3.04688 16.9238C3.28125 16.4355 3.62305 15.6738 4.07227 14.6387L10.166 0.253906H10.752L18.0469 16.8945C18.5352 17.9883 18.9258 18.6914 19.2188 19.0039C19.5312 19.2969 20.0195 19.4434 20.6836 19.4434ZM6.32812 12.4707H13.0957L9.69727 4.41406L6.32812 12.4707Z" fill="black"/>
<path d="M22.2598 18.7549V15.0488C22.2598 14.6387 22.2061 14.3701 22.0986 14.2432C22.0303 14.1553 21.9131 14.1113 21.7471 14.1113C21.5908 14.1113 21.4346 14.1309 21.2783 14.1699V13.9209C21.9814 13.7256 22.665 13.5059 23.3291 13.2617L23.4316 13.291V14.3896C23.9492 13.999 24.335 13.7305 24.5889 13.584C24.9697 13.3691 25.3359 13.2617 25.6875 13.2617C26.127 13.2617 26.4883 13.3887 26.7715 13.6426C26.9961 13.8477 27.1572 14.1309 27.2549 14.4922C27.5186 14.1895 27.8018 13.9404 28.1045 13.7451C28.6025 13.4229 29.1055 13.2617 29.6133 13.2617C30.2871 13.2617 30.7656 13.5596 31.0488 14.1553C31.2441 14.5752 31.3418 15.1465 31.3418 15.8691V18.8867C31.3418 19.1211 31.3662 19.292 31.415 19.3994C31.5029 19.585 31.6885 19.7021 31.9717 19.751L32.3525 19.7803V20H29.1445V19.7803C29.5547 19.7314 29.8086 19.6631 29.9062 19.5752C30.043 19.458 30.1113 19.1748 30.1113 18.7256V15.6348C30.1113 15.1172 30.0674 14.7559 29.9795 14.5508C29.8232 14.1992 29.5107 14.0234 29.042 14.0234C28.6514 14.0234 28.3193 14.1064 28.0459 14.2725C27.8115 14.4092 27.6016 14.624 27.416 14.917V18.6084C27.416 19.1162 27.5137 19.4482 27.709 19.6045C27.8555 19.7217 28.1094 19.7803 28.4707 19.7803V20H25.1895V19.7803C25.5605 19.7803 25.8096 19.7266 25.9365 19.6191C26.1025 19.4824 26.1855 19.1895 26.1855 18.7402V15.5615C26.1855 15.0537 26.1074 14.6729 25.9512 14.4189C25.7949 14.1553 25.5361 14.0234 25.1748 14.0234C24.7354 14.0234 24.3301 14.1553 23.959 14.4189C23.6465 14.6338 23.4902 14.79 23.4902 14.8877V19.0186C23.4902 19.3408 23.5928 19.5557 23.7979 19.6631C23.9443 19.7412 24.1738 19.7803 24.4863 19.7803V20H21.2344V19.7803C21.5957 19.7803 21.8398 19.7363 21.9668 19.6484C22.1621 19.5117 22.2598 19.2139 22.2598 18.7549Z" fill="black"/>
<path d="M34.5771 0.302734V0.537109L31.4717 10.1172H30.5195L33.4199 1.38672H30.2412C29.8115 1.38672 29.4697 1.48926 29.2158 1.69434C29.0596 1.82129 28.835 2.11426 28.542 2.57324L28.293 2.45605L28.9229 0.947266L29.1572 0.302734H34.5771Z" fill="black"/>
</svg>
