<svg width="312" height="300" viewBox="0 0 312 300" fill="none" xmlns="http://www.w3.org/2000/svg">
<g clip-path="url(#clip0)">
<path d="M2 30V300" stroke="#0A0909" stroke-width="4"/>
<path d="M311 0V300" stroke="#090808" stroke-width="2" stroke-linejoin="round"/>
<path d="M34.6334 18.7357C34.6334 20.5097 34.3158 22.1943 33.6807 23.7893C33.0455 25.3843 32.1459 26.7923 30.9815 28.013C29.8347 29.2173 28.4412 30.1777 26.8006 30.894C25.1777 31.5937 23.3604 31.9437 21.3495 31.9437C19.3385 31.9437 17.5126 31.5937 15.8719 30.894C14.249 30.194 12.8552 29.25 11.6911 28.062C10.5444 26.8573 9.66209 25.4577 9.04465 23.8627C8.4272 22.2677 8.11866 20.575 8.11866 18.7847C8.11866 16.978 8.4449 15.2933 9.09776 13.7307C9.76795 12.152 10.703 10.7847 11.9024 9.62933C13.1023 8.45733 14.5312 7.53767 16.1895 6.87033C17.8478 6.187 19.6734 5.845 21.667 5.845C23.6252 5.845 25.3981 6.195 26.986 6.895C28.5735 7.57833 29.9319 8.51433 31.0609 9.70233C32.2077 10.8743 33.0896 12.2417 33.707 13.804C34.3245 15.3667 34.6334 17.0103 34.6334 18.7357ZM30.0819 18.9797C30.0819 18.0683 30.0287 17.1407 29.9229 16.1967C29.8347 15.2527 29.6671 14.341 29.4203 13.4623C29.1732 12.5833 28.8379 11.7613 28.4149 10.9963C27.9914 10.2313 27.4531 9.564 26.8006 8.99433C26.1478 8.42467 25.3627 7.97733 24.4454 7.65167C23.528 7.31 22.4608 7.139 21.2436 7.139C20.1146 7.139 19.1178 7.31 18.2536 7.65167C17.4067 7.97733 16.6657 8.42467 16.0306 8.99433C15.3954 9.564 14.8665 10.2313 14.443 10.9963C14.0196 11.7613 13.6757 12.5753 13.4108 13.4377C13.1641 14.2843 12.9874 15.163 12.8815 16.0747C12.7757 16.9697 12.7229 17.8403 12.7229 18.687C12.7229 19.517 12.7757 20.3877 12.8815 21.299C12.9874 22.2107 13.1727 23.1057 13.4376 23.9847C13.702 24.8637 14.046 25.7017 14.4694 26.4993C14.8929 27.297 15.4221 27.9967 16.0569 28.599C16.6921 29.2013 17.4421 29.6813 18.3063 30.0393C19.1709 30.3973 20.1673 30.5763 21.2964 30.5763C22.4785 30.5763 23.5103 30.4137 24.3926 30.0883C25.2922 29.7627 26.0683 29.3233 26.7211 28.77C27.374 28.2003 27.9119 27.541 28.3354 26.7923C28.7765 26.0273 29.1205 25.2217 29.3672 24.3753C29.632 23.5127 29.817 22.6257 29.9229 21.7143C30.0287 20.7863 30.0819 19.875 30.0819 18.9797Z" fill="black"/>
<path d="M2.7329 19.5L38.5006 19.1667" stroke="black" stroke-width="2"/>
<path d="M21.3484 2V36.3333" stroke="black" stroke-width="2"/>
</g>
<defs>
<clipPath id="clip0">
<rect width="312" height="300" fill="white"/>
</clipPath>
</defs>
</svg>
