<svg width="312" height="300" viewBox="0 0 312 300" fill="none" xmlns="http://www.w3.org/2000/svg">
<line x1="2" y1="30" x2="2" y2="300" stroke="#0A0909" stroke-width="4"/>
<line x1="311" x2="311" y2="300" stroke="#090808" stroke-width="2" stroke-linejoin="round"/>
<path d="M9.6 6.25C9.6 5.99 9.49 5.76 9.27 5.56C9.05 5.36 8.77 5.26 8.43 5.26C7.73 5.26 7.15 5.47 6.69 5.89C3.61 9.15 1.87 11.02 1.47 11.5C1.01 12.06 0.78 12.49 0.78 12.79C0.78 13.11 0.88 13.38 1.08 13.6C1.28 13.82 1.53 13.93 1.83 13.93C2.13 13.93 2.46 13.82 2.82 13.6C3.18 13.36 3.49 13.09 3.75 12.79C4.19 12.29 4.63 11.77 5.07 11.23C5.71 10.45 6.37 9.76 7.05 9.16C6.99 11.38 6.96 13.75 6.96 16.27L7.05 23.89C7.05 24.27 7.13 24.56 7.29 24.76C7.45 24.96 7.65 25.06 7.89 25.06C8.95 25.06 9.48 24.57 9.48 23.59L9.39 14.32L9.6 6.25ZM15.8184 23.2C15.7584 22.66 15.5684 22.23 15.2484 21.91C14.9284 21.57 14.5484 21.4 14.1084 21.4C13.7084 21.4 13.3484 21.64 13.0284 22.12C12.7084 22.58 12.5484 23.06 12.5484 23.56C12.5484 24.02 12.7084 24.37 13.0284 24.61C13.3484 24.85 13.7384 24.97 14.1984 24.97C14.6184 24.97 14.9884 24.79 15.3084 24.43C15.6484 24.05 15.8184 23.64 15.8184 23.2ZM25.5485 25.42C25.5485 26 25.8185 26.29 26.3585 26.29C26.7585 26.29 27.1285 26.06 27.4685 25.6C28.6085 22.98 30.0685 19.37 31.8485 14.77C33.8685 9.65 35.0785 6.62 35.4785 5.68C35.9785 4.54 36.2285 3.85 36.2285 3.61C36.2285 3.37 36.1485 3.18 35.9885 3.04C35.8285 2.9 35.6285 2.83 35.3885 2.83C34.8485 2.83 34.4385 3.09 34.1585 3.61C32.5985 7.39 31.1785 10.97 29.8985 14.35C28.5785 17.85 27.1585 21.4 25.6385 25C25.5785 25.22 25.5485 25.36 25.5485 25.42Z" fill="black"/>
</svg>
