<svg width="312" height="300" viewBox="0 0 312 300" fill="none" xmlns="http://www.w3.org/2000/svg">
<line x1="2" y1="30" x2="2" y2="300" stroke="#0A0909" stroke-width="4"/>
<line x1="311" x2="311" y2="300" stroke="#090808" stroke-width="2" stroke-linejoin="round"/>
<path d="M8.79 25.06C10.59 25.06 11.85 24.94 12.57 24.7C13.29 24.42 13.65 23.95 13.65 23.29C13.65 23.03 13.55 22.8 13.35 22.6C13.17 22.38 12.93 22.24 12.63 22.18C10.71 22.34 8.93 22.42 7.29 22.42C6.13 22.42 5.15 22.39 4.35 22.33C5.07 21.31 6.42 19.85 8.4 17.95C9.1 17.25 9.73 16.58 10.29 15.94C11.61 14.4 12.27 12.56 12.27 10.42C12.27 8.9 11.82 7.65 10.92 6.67C10.06 5.65 8.92 5.14 7.5 5.14C6.08 5.14 4.8 5.42 3.66 5.98C2.56 6.48 2.01 7.13 2.01 7.93C2.01 8.51 2.26 8.86 2.76 8.98C2.82 9 2.93 9.01 3.09 9.01C3.49 9.01 3.85 8.85 4.17 8.53C5.03 7.79 5.89 7.42 6.75 7.42C7.13 7.42 7.5 7.48 7.86 7.6C9.12 8.04 9.75 9.06 9.75 10.66C9.75 11.64 9.46 12.59 8.88 13.51C8.3 14.41 7.37 15.46 6.09 16.66C4.95 17.74 4.23 18.45 3.93 18.79L2.76 20.05C2.18 20.65 1.82 21.05 1.68 21.25C1.52 21.45 1.33 21.81 1.11 22.33C0.91 22.79 0.81 23.3 0.81 23.86C0.81 24.62 1.8 25 3.78 25H4.38L8.79 25.06ZM18.9532 23.2C18.8932 22.66 18.7032 22.23 18.3832 21.91C18.0632 21.57 17.6832 21.4 17.2432 21.4C16.8432 21.4 16.4832 21.64 16.1632 22.12C15.8432 22.58 15.6832 23.06 15.6832 23.56C15.6832 24.02 15.8432 24.37 16.1632 24.61C16.4832 24.85 16.8732 24.97 17.3332 24.97C17.7532 24.97 18.1232 24.79 18.4432 24.43C18.7832 24.05 18.9532 23.64 18.9532 23.2ZM28.6833 25.42C28.6833 26 28.9533 26.29 29.4933 26.29C29.8933 26.29 30.2633 26.06 30.6033 25.6C31.7433 22.98 33.2033 19.37 34.9833 14.77C37.0033 9.65 38.2133 6.62 38.6133 5.68C39.1133 4.54 39.3633 3.85 39.3633 3.61C39.3633 3.37 39.2833 3.18 39.1233 3.04C38.9633 2.9 38.7633 2.83 38.5233 2.83C37.9833 2.83 37.5733 3.09 37.2933 3.61C35.7333 7.39 34.3133 10.97 33.0333 14.35C31.7133 17.85 30.2933 21.4 28.7733 25C28.7133 25.22 28.6833 25.36 28.6833 25.42Z" fill="black"/>
</svg>
