<svg width="310" height="300" viewBox="0 0 310 300" fill="none" xmlns="http://www.w3.org/2000/svg">
<path d="M198.271 149.207C198.271 154.529 197.392 159.583 195.634 164.368C193.876 169.153 191.386 173.377 188.163 177.039C184.989 180.652 181.132 183.533 176.591 185.682C172.099 187.781 167.069 188.831 161.503 188.831C155.937 188.831 150.883 187.781 146.342 185.682C141.85 183.582 137.992 180.75 134.77 177.186C131.596 173.572 129.154 169.373 127.445 164.588C125.736 159.803 124.882 154.725 124.882 149.354C124.882 143.934 125.785 138.88 127.592 134.192C129.447 129.456 132.035 125.354 135.355 121.888C138.676 118.372 142.631 115.613 147.221 113.611C151.811 111.561 156.864 110.535 162.382 110.535C167.802 110.535 172.709 111.585 177.104 113.685C181.498 115.735 185.258 118.543 188.383 122.107C191.557 125.623 193.998 129.725 195.707 134.412C197.416 139.1 198.271 144.031 198.271 149.207ZM185.673 149.939C185.673 147.205 185.526 144.422 185.233 141.59C184.989 138.758 184.525 136.023 183.842 133.387C183.158 130.75 182.23 128.284 181.059 125.989C179.887 123.694 178.397 121.692 176.591 119.983C174.784 118.274 172.611 116.932 170.072 115.955C167.533 114.93 164.579 114.417 161.21 114.417C158.085 114.417 155.326 114.93 152.934 115.955C150.59 116.932 148.539 118.274 146.781 119.983C145.023 121.692 143.559 123.694 142.387 125.989C141.215 128.284 140.263 130.726 139.53 133.313C138.847 135.853 138.358 138.489 138.065 141.224C137.772 143.909 137.626 146.521 137.626 149.061C137.626 151.551 137.772 154.163 138.065 156.897C138.358 159.632 138.871 162.317 139.604 164.954C140.336 167.591 141.288 170.105 142.46 172.498C143.632 174.891 145.097 176.99 146.854 178.797C148.612 180.604 150.688 182.044 153.08 183.118C155.473 184.192 158.231 184.729 161.356 184.729C164.628 184.729 167.484 184.241 169.926 183.265C172.416 182.288 174.564 180.97 176.371 179.31C178.178 177.601 179.667 175.623 180.839 173.377C182.06 171.082 183.012 168.665 183.695 166.126C184.428 163.538 184.94 160.877 185.233 158.143C185.526 155.359 185.673 152.625 185.673 149.939Z" fill="black"/>
<line x1="109.975" y1="151.5" x2="208.975" y2="150.5" stroke="black" stroke-width="5"/>
<line x1="161.5" y1="99" x2="161.5" y2="202" stroke="black" stroke-width="5"/>
</svg>
